<svg width="32" height="32" viewBox="0 0 64 64" fill="none" xmlns="http://www.w3.org/2000/svg"><path d="M31.9632 63.9265C14.3195 63.9265 0 49.6069 0 31.9632C0 14.3195 14.3195 0 31.9632 0H55.9357C60.3466 0 63.9265 3.57988 63.9265 7.99081V31.9632C63.9265 49.6069 49.6069 63.9265 31.9632 63.9265Z" fill="#1F9999"></path><path d="M31.9631 48.6202C41.1625 48.6202 48.62 41.1626 48.62 31.9633C48.62 22.7639 41.1625 15.3064 31.9631 15.3064C22.7638 15.3064 15.3062 22.7639 15.3062 31.9633C15.3062 41.1626 22.7638 48.6202 31.9631 48.6202Z" fill="white"></path><path d="M10.2534 32.9473H24.3648L29.4875 39.771L34.2544 26.0508L39.5972 32.9473H41.3672H54.7919" stroke="#1F9999" stroke-width="4" stroke-linecap="round" stroke-linejoin="round"></path></svg>
